# xmcd CD database file
#
# Track frame offsets:
#	150
#	20490
#	42850
#	60725
#	83642
#	113825
#	139745
#	166027
#	183037
#	204337
#
# Disc length: 3054 seconds
#
# Revision: 6
# Processed by: cddbd v1.5.1PL0 Copyright (c) Steve Scherf et al.
# Submitted via: CDex 1.50
#
DISCID=750bec0a
DTITLE=Diana Krall - The Look of Love
DYEAR=2001
DGENRE=Blues
TTITLE0=S'Wonderful
TTITLE1=Love Letters
TTITLE2=I Remember You
TTITLE3=Cry Me a River
TTITLE4=Besame Mucho
TTITLE5=The Night We Called it a Day
TTITLE6=Dancing in the Dark
TTITLE7=I Get Along Without You Very Well
TTITLE8=The Look of Love
TTITLE9=Maybe You'll Be There
EXTD=YEAR: 2001
EXTT0=
EXTT1=
EXTT2=
EXTT3=
EXTT4=
EXTT5=
EXTT6=
EXTT7=
EXTT8=
EXTT9=
PLAYORDER=
